<?xml version="1.0" encoding="UTF-8" standalone="no"?>
<!-- Created with Inkscape (http://www.inkscape.org/) -->

<svg
   xmlns:dc="http://purl.org/dc/elements/1.1/"
   xmlns:cc="http://creativecommons.org/ns#"
   xmlns:rdf="http://www.w3.org/1999/02/22-rdf-syntax-ns#"
   xmlns:svg="http://www.w3.org/2000/svg"
   xmlns="http://www.w3.org/2000/svg"
   xmlns:sodipodi="http://sodipodi.sourceforge.net/DTD/sodipodi-0.dtd"
   xmlns:inkscape="http://www.inkscape.org/namespaces/inkscape"
   width="300"
   height="200"
   viewBox="0 0 79.374999 52.916666"
   version="1.1"
   id="svg8"
   inkscape:version="0.92.4 (5da689c313, 2019-01-14)"
   sodipodi:docname="base_top.svg">
  <defs
     id="defs2" />
  <sodipodi:namedview
     id="base"
     pagecolor="#ffffff"
     bordercolor="#666666"
     borderopacity="1.0"
     inkscape:pageopacity="0.0"
     inkscape:pageshadow="2"
     inkscape:zoom="3.959798"
     inkscape:cx="140.12766"
     inkscape:cy="127.88328"
     inkscape:document-units="mm"
     inkscape:current-layer="layer1"
     showgrid="false"
     units="px"
     inkscape:window-width="1920"
     inkscape:window-height="1166"
     inkscape:window-x="-11"
     inkscape:window-y="-11"
     inkscape:window-maximized="1" />
  <metadata
     id="metadata5">
    <rdf:RDF>
      <cc:Work
         rdf:about="">
        <dc:format>image/svg+xml</dc:format>
        <dc:type
           rdf:resource="http://purl.org/dc/dcmitype/StillImage" />
        <dc:title></dc:title>
      </cc:Work>
    </rdf:RDF>
  </metadata>
  <g
     inkscape:label="レイヤー 1"
     inkscape:groupmode="layer"
     id="layer1"
     transform="translate(0,-244.08334)">
    <path
       id="path871"
       style="font-style:normal;font-variant:normal;font-weight:normal;font-stretch:normal;font-size:6.3499999px;line-height:1.25;font-family:Cotillion;-inkscape-font-specification:Cotillion;letter-spacing:0px;word-spacing:0px;fill:#ffffff;fill-opacity:1;stroke:none;stroke-width:0.26458332"
       d="m 20.987329,262.91902 q -0.0127,0.0254 -0.03175,0.0444 -0.0064,0.006 -0.03175,0.0191 l -0.08255,-0.0191 q -0.0762,-0.0254 -0.1778,-0.019 l -0.06985,0.019 -0.04445,0.0127 -0.06985,0.019 q -0.27305,0.1143 -0.47625,0.28575 -0.2032,0.1651 -0.76835,0.76835 -0.1651,0.17145 -0.42545,0.37465 l -0.0762,0.0571 -0.1143,0.0699 q 0.22225,0.15875 0.22225,0.45085 0,0.0381 -0.0127,0.127 l -0.0508,0.1524 -0.03175,0.0698 -0.1016,0.20955 -0.0508,0.1016 q -0.0762,0.1651 -0.0889,0.2032 -0.0064,0.0127 -0.04445,0.1397 -0.0254,0.1016 0.03175,0.17145 0.05715,0.0698 0.15875,0.0571 0.1143,-0.0254 0.19685,-0.0699 0.0889,-0.0508 0.28575,-0.20955 0.127,-0.10795 0.1651,-0.14605 0.04445,-0.0444 0.06985,-0.0825 0.1905,-0.3048 0.254,-0.37465 0.06985,-0.0762 0.10795,-0.0508 0.0127,0 0.01905,0.0254 l -0.06985,0.0889 -0.0254,0.0444 -0.1016,0.12065 -0.12065,0.14605 -0.0254,0.0381 -0.1143,0.12065 q -0.2667,0.28575 -0.52705,0.43815 -0.23495,0.13335 -0.41275,0.13335 -0.0635,0 -0.1397,-0.0127 -0.0762,-0.0127 -0.1524,-0.10795 -0.06985,-0.1016 -0.06985,-0.2413 0,-0.0508 0.0064,-0.0762 0.03175,-0.1905 0.20955,-0.50165 0.03175,-0.0698 0.08255,-0.12065 l 0.08255,-0.127 0.06985,-0.1016 0.03175,-0.0508 q 0.1143,-0.2286 0.1143,-0.3556 0,-0.0825 -0.06985,-0.1651 l -0.0762,0.0254 -0.08255,0.019 -0.0381,0.006 -0.0508,0.006 q -0.127,0 -0.18415,-0.0381 -0.0508,-0.0381 -0.0127,-0.0889 0.0381,-0.0508 0.19685,-0.0699 l 0.18415,0.0317 0.05715,0.0127 0.04445,0.006 q 0.2921,-0.17145 0.62865,-0.4953 l 0.0381,-0.0381 0.46355,-0.48895 0.19685,-0.2032 q 0.28575,-0.2667 0.4064,-0.34925 0.29845,-0.20955 0.4699,-0.20955 0.0508,0 0.0889,0.019 0.1651,0.0698 0.1397,0.1778 z m -1.26365,-0.0952 q 0.04445,0.0444 0.04445,0.0825 0,0.0699 -0.0889,0.127 -0.0889,0.0508 -0.24765,0.0889 -0.1524,0.0317 -0.381,0.0317 h -0.09525 l -0.09525,-0.0127 q -0.127,0.127 -0.20955,0.23495 -0.08255,0.10795 -0.2159,0.33655 l -0.17145,0.27305 -0.0635,0.1143 -0.10795,0.1905 -0.17145,0.29845 -0.12065,0.19685 q -0.43815,0.69215 -0.79375,1.0287 -0.34925,0.33655 -0.7874,0.508 -0.22225,0.0826 -0.4191,0.12065 -0.1905,0.0445 -0.33655,0.0445 -0.42545,0 -0.635,-0.12065 -0.20955,-0.12065 -0.20955,-0.29845 0,-0.0572 0.01905,-0.1143 0.01905,-0.0635 0.0635,-0.0953 0.06985,-0.0889 0.1905,-0.0889 0.12065,0 0.17145,0.1016 0.03175,0.0571 0.03175,0.0952 0,0.0444 -0.04445,0.0699 l -0.0381,0.0127 -0.03175,0.0127 q -0.03175,0.019 -0.04445,0.0635 -0.04445,0.0699 0.0381,0.17145 0.0254,0.0381 0.0889,0.0635 0.06985,0.0254 0.1397,0.0444 0.06985,0.0127 0.1143,0.019 0.04445,0.006 0.10795,0.006 0.3175,0 0.635,-0.20955 0.3429,-0.2286 0.7239,-0.7239 l 0.1397,-0.1905 0.1143,-0.17145 0.1143,-0.1778 0.04445,-0.0699 0.2921,-0.4572 q 0.2794,-0.4318 0.4572,-0.6477 0.18415,-0.22225 0.46355,-0.46355 l 0.13335,-0.10795 0.1016,-0.0889 -0.127,-0.0254 -0.127,-0.019 -0.23495,-0.0381 q -0.3175,-0.0381 -0.56515,-0.0381 -0.3175,0 -0.53975,0.0508 -0.22225,0.0508 -0.4191,0.15875 -0.3556,0.18415 -0.5334,0.4318 -0.17145,0.24765 -0.17145,0.5334 0,0.20955 0.127,0.34925 0.13335,0.13335 0.3429,0.13335 0.127,0 0.2413,-0.0445 l 0.12065,-0.0571 q 0.2032,-0.10795 0.3302,-0.254 l 0.05715,-0.0698 0.0127,-0.019 0.0254,-0.0127 0.01905,0.0127 q 0.01905,0.0254 -0.06985,0.13335 l -0.13335,0.1524 q -0.09525,0.1016 -0.20955,0.18415 -0.1143,0.0762 -0.23495,0.127 -0.06985,0.0254 -0.15875,0.0444 -0.08255,0.019 -0.1651,0.019 -0.2286,0 -0.38735,-0.1524 -0.15875,-0.1524 -0.15875,-0.38735 0,-0.0762 0.03175,-0.1778 0.0381,-0.10795 0.08255,-0.1905 0.04445,-0.0889 0.15875,-0.254 0.55245,-0.78105 1.3843,-0.90805 0.06985,-0.006 0.13335,-0.0127 0.06985,-0.0127 0.14605,-0.0127 0.23495,0 0.83185,0.15875 l 0.34925,0.0889 0.0889,-0.0444 0.14605,-0.0635 0.0889,-0.0381 0.0635,-0.0317 q 0.18415,-0.0699 0.34925,-0.0699 0.12065,0 0.18415,0.0445 z m -0.1651,0.1524 q 0.0254,-0.0191 0.0254,-0.0508 0,-0.0317 -0.0254,-0.0508 -0.0508,-0.0254 -0.09525,-0.0317 l -0.09525,0.006 q -0.0762,0.019 -0.1016,0.0254 -0.0508,0.019 -0.1397,0.0635 -0.0889,0.0445 -0.14605,0.1016 0.0762,0.0381 0.18415,0.0381 0.06985,0 0.1143,-0.006 l 0.04445,-0.006 0.1143,-0.0317 z m -7.969846,2.432 -0.0254,0.0508 -0.4826,0.55245 -0.10795,0.1016 q -0.20955,0.1778 -0.3556,0.254 -0.14605,0.0762 -0.3429,0.1143 -0.0762,0.0127 -0.127,0.0127 -0.0381,0 -0.1651,-0.0191 -0.127,-0.0127 -0.22225,-0.13335 -0.1016,-0.127 -0.1016,-0.31115 0,-0.0826 0.00635,-0.127 0.00635,-0.0445 0.04445,-0.13335 0.0889,-0.2159 0.27305,-0.43815 0.1778,-0.2286 0.4318,-0.41275 0.26035,-0.1905 0.4699,-0.2667 0.26035,-0.0953 0.41275,-0.0953 0.0381,0 0.15875,0.0254 0.12065,0.019 0.12065,0.1651 0,0.0889 -0.0635,0.1905 -0.06985,0.0889 -0.1905,0.18415 -0.15875,0.12065 -0.40005,0.2413 -0.10795,0.0508 -0.2286,0.0953 -0.1143,0.0444 -0.20955,0.0698 l -0.2413,0.0699 q -0.0127,0.006 -0.0762,0.1524 -0.08255,0.1778 -0.09525,0.23495 -0.0127,0.0572 -0.0127,0.0889 0,0.24765 0.33655,0.24765 0.10795,0 0.2413,-0.0635 0.1397,-0.0635 0.27305,-0.17145 l 0.127,-0.10795 0.05715,-0.0635 0.2794,-0.31115 0.13335,-0.15875 0.0508,-0.0762 0.03175,0.0127 z m -0.27305,-0.5461 q 0.0127,-0.0254 0.01905,-0.0635 0.0063,-0.0318 0.0063,-0.0572 0,-0.0889 -0.05715,-0.1016 -0.0508,-0.019 -0.0635,-0.019 -0.0635,0 -0.1143,0.0254 -0.04445,0.0254 -0.12065,0.0889 -0.12065,0.1016 -0.19685,0.17145 -0.0762,0.0699 -0.17145,0.1651 -0.13335,0.13335 -0.2667,0.3302 l -0.08255,0.1143 0.0889,-0.0127 q 0.0508,-0.006 0.06985,-0.0127 0.03175,-0.0127 0.0635,-0.0254 0.1651,-0.0572 0.2794,-0.1143 0.12065,-0.0571 0.23495,-0.1524 0.12065,-0.0952 0.1905,-0.17145 0.0762,-0.0762 0.12065,-0.1651 z m -1.281807,0.53975 -0.03175,0.0445 -0.0127,0.019 -0.1016,0.1397 -0.01905,0.0317 -0.15875,0.1778 -0.05715,0.0572 -0.13335,0.13335 q -0.2159,0.20955 -0.3937,0.32385 -0.17145,0.10795 -0.32385,0.1397 -0.1524,0.0318 -0.27305,0.0318 -0.46355,0 -0.46355,-0.46355 0,-0.10795 0.01905,-0.18415 0.01905,-0.0762 0.08255,-0.1905 0.05715,-0.12065 0.18415,-0.2921 0.09525,-0.10795 0.13335,-0.14605 0.0381,-0.0444 0.1016,-0.1016 0.26035,-0.24765 0.5334,-0.3937 0.27305,-0.14605 0.3937,-0.15875 0.127,-0.019 0.19685,-0.019 0.09525,0 0.2032,0.0444 0.10795,0.0381 0.10795,0.1397 0,0.0508 -0.0381,0.10795 l -0.04445,0.0698 -0.01905,0.006 -0.05715,0.0572 q -0.00635,0.0127 -0.0254,0.019 -0.0254,0.0127 -0.03175,-0.006 l -0.00635,-0.0317 v -0.0699 q 0,-0.0571 -0.0254,-0.0953 l -0.01905,-0.0508 q -0.05715,-0.0952 -0.1651,-0.0952 -0.15875,0 -0.4064,0.2667 l -0.14605,0.15875 -0.08255,0.1016 q -0.08255,0.0953 -0.14605,0.1778 -0.05715,0.0826 -0.10795,0.15875 -0.09525,0.15875 -0.14605,0.29845 -0.05715,0.13335 -0.06985,0.20955 -0.0508,0.32385 0.3048,0.32385 0.1524,0 0.3175,-0.0889 0.17145,-0.0889 0.38735,-0.2921 l 0.1016,-0.0953 0.0762,-0.0762 q 0.0254,-0.0317 0.0381,-0.0444 0.01905,-0.0254 0.04445,-0.0381 0.14605,-0.18415 0.19685,-0.27305 0.03175,-0.0508 0.0508,-0.0635 0.0063,0 0.0127,-0.006 l 0.01905,0.0127 z m -1.4721086,-1.5875 q 0,0.0635 -0.0508,0.1651 -0.0508,0.0953 -0.1651,0.1778 -0.03175,0.019 -0.08255,0.0445 -0.04445,0.019 -0.1016,0.019 -0.1524,0 -0.1905,-0.13335 -0.0127,-0.0508 -0.0127,-0.0699 0,-0.14605 0.1524,-0.2667 0.1524,-0.127 0.2667,-0.127 0.18415,0 0.18415,0.1905 z m -0.12065,1.5621 -0.00635,0.0317 -0.03175,0.0508 -0.0127,0.0127 -0.08255,0.1016 -0.04445,0.0635 -0.0635,0.0698 -0.1143,0.1143 -0.10795,0.12065 -0.06985,0.0698 -0.0762,0.0826 q -0.24765,0.23495 -0.40005,0.3175 -0.1524,0.0826 -0.28575,0.0826 -0.14605,0 -0.2286,-0.0889 -0.08255,-0.0889 -0.08255,-0.22225 0,-0.0318 0.01905,-0.0953 0.0127,-0.0699 0.03175,-0.12065 0.0127,-0.0317 0.09525,-0.17145 l 0.0508,-0.0762 0.55245,-0.8255 q 0.0889,-0.1397 0.0889,-0.2159 0,-0.0508 -0.0127,-0.0826 h 0.46355 q 0.0127,0.0635 0.0127,0.0762 0,0.0825 -0.10795,0.22225 l -0.64135,0.9525 -0.05715,0.0889 q -0.0508,0.0825 -0.06985,0.15875 -0.01905,0.0698 -0.01905,0.13335 0,0.10795 0.09525,0.10795 0.04445,-0.006 0.1016,-0.0381 0.05715,-0.0317 0.1016,-0.0508 0.0381,-0.019 0.1016,-0.0762 0.01905,-0.0127 0.127,-0.1143 l 0.0889,-0.0699 0.09525,-0.0889 0.1016,-0.1016 0.05715,-0.0698 0.10795,-0.12065 q 0.09525,-0.10795 0.13335,-0.1778 l 0.0381,-0.0508 0.0254,-0.0127 z m 0.4694039,-2.413 q -0.05715,0.14605 -0.2159,0.2032 -0.0254,0.006 -0.0508,0 l 0.00635,-0.0254 0.01905,-0.0635 q 0.0127,-0.0317 -0.0127,-0.10795 -0.0254,-0.0826 -0.14605,-0.0826 -0.0762,0 -0.18415,0.0444 -0.10795,0.0381 -0.23495,0.14605 -0.127,0.10795 -0.3048,0.32385 -0.08255,0.1016 -0.13335,0.17145 -0.1524,0.2032 -0.36195,0.52705 l -0.1905,0.29845 -0.1143,0.19685 h 0.59055 l -0.0381,0.0826 h -0.6096 l -0.23495,0.36195 -0.2032,0.31115 -0.1143,0.1778 -0.1143,0.18415 -0.06985,0.0953 -0.34925,0.5207 q -0.42545,0.61595 -0.6985,0.86995 -0.27305,0.254 -0.6604,0.40005 -0.14605,0.0508 -0.27305,0.0825 -0.127,0.0318 -0.2159,0.0318 l -0.12065,-0.006 h -0.1016 l -0.06985,-0.006 q -0.0508,0 -0.10795,-0.0191 -0.05715,-0.0127 -0.127,-0.0444 -0.13335,-0.0762 -0.13335,-0.19685 0,-0.0826 0.0762,-0.15875 l 0.0762,-0.0445 q 0.0635,-0.0127 0.08255,-0.0127 0.0889,0 0.12065,0.0762 0,0.0571 -0.00635,0.0698 l -0.03175,0.0318 q -0.0381,0.0381 -0.0381,0.0889 0,0.0762 0.09525,0.12065 0.08255,0.0508 0.23495,0.0508 0.1905,0 0.3937,-0.0952 0.19685,-0.0953 0.4191,-0.3175 0.09525,-0.1016 0.17145,-0.20955 0.0762,-0.10795 0.2667,-0.40005 l 0.09525,-0.14605 0.2667,-0.4191 0.50165,-0.74295 0.127,-0.1905 0.29845,-0.46355 h -0.4064 l 0.0381,-0.0826 h 0.4191 l 0.17145,-0.26035 q 0.2921,-0.4318 0.50165,-0.6731 0.20955,-0.24765 0.41275,-0.40005 0.40005,-0.31115 0.73025,-0.41275 0.1778,-0.0572 0.3175,-0.0572 0.08255,0 0.1651,0.0127 0.0889,0.0127 0.0889,0.10795 0,0.0127 -0.0127,0.0508 z m -1.3022459,0 q -0.05715,0.14605 -0.2159,0.2032 -0.0254,0.006 -0.0508,0 l 0.00635,-0.0254 0.01905,-0.0635 q 0.0127,-0.0317 -0.0127,-0.10795 -0.0254,-0.0826 -0.14605,-0.0826 -0.0762,0 -0.18415,0.0444 -0.10795,0.0381 -0.23495,0.14605 -0.127,0.10795 -0.3048,0.32385 -0.08255,0.1016 -0.13335,0.17145 -0.1524,0.2032 -0.36195,0.52705 l -0.1905,0.29845 -0.1143,0.19685 h 0.59055 l -0.0381,0.0826 h -0.6096 l -0.23495,0.36195 -0.2032,0.31115 -0.1143,0.1778 -0.1143,0.18415 -0.06985,0.0953 -0.34925,0.5207 q -0.4254499,0.61595 -0.6984999,0.86995 -0.27305,0.254 -0.6604,0.40005 -0.14605,0.0508 -0.27305,0.0825 -0.127,0.0318 -0.2159,0.0318 l -0.12065,-0.006 h -0.1016 l -0.06985,-0.006 q -0.0508,0 -0.10795,-0.0191 -0.05715,-0.0127 -0.127,-0.0444 -0.13335,-0.0762 -0.13335,-0.19685 0,-0.0826 0.0762,-0.15875 l 0.0762,-0.0445 q 0.0635,-0.0127 0.08255,-0.0127 0.0889,0 0.12065,0.0762 0,0.0571 -0.00635,0.0698 l -0.03175,0.0318 q -0.0381,0.0381 -0.0381,0.0889 0,0.0762 0.09525,0.12065 0.08255,0.0508 0.23495,0.0508 0.1905,0 0.3937,-0.0952 0.19685,-0.0953 0.4191,-0.3175 0.09525,-0.1016 0.17145,-0.20955 0.0762,-0.10795 0.2667,-0.40005 l 0.09525,-0.14605 0.2667,-0.4191 0.5016499,-0.74295 0.127,-0.1905 0.29845,-0.46355 h -0.4064 l 0.0381,-0.0826 h 0.4191 l 0.17145,-0.26035 q 0.2921,-0.4318 0.50165,-0.6731 0.20955,-0.24765 0.41275,-0.40005 0.40005,-0.31115 0.73025,-0.41275 0.1778,-0.0572 0.3175,-0.0572 0.08255,0 0.1651,0.0127 0.0889,0.0127 0.0889,0.10795 0,0.0127 -0.0127,0.0508 z m -2.5574626,0.3683 q 0,0.36195 -0.17145,0.81915 -0.17145,0.45085 -0.5207,0.95885 -0.4127499,0.59055 -0.8889999,0.95885 -0.45085,0.34925 -0.89535,0.4572 -0.2286,0.0571 -0.4191,0.0571 -0.4445,0 -0.67945,-0.2667 -0.2286,-0.27305 -0.2286,-0.7493 0,-0.62865 0.65405,-1.4351 0.0889,-0.1143 0.15875,-0.18415 0.03175,-0.0317 0.18415,-0.1778 0.26035,-0.2286 0.4191,-0.34925 0.1651,-0.127 0.27305,-0.1905 0.24765,-0.14605 0.3175,-0.1778 0.0762,-0.0381 0.14605,-0.0254 l -0.01905,0.0317 -0.0254,0.0127 -0.1651,0.1016 q -0.47625,0.26035 -0.94615,0.9144 -0.31115,0.4318 -0.4445,0.83185 -0.1016,0.3048 -0.1016,0.5588 0,0.38735 0.2286,0.5969 0.23495,0.2032 0.64135,0.2032 0.29845,0 0.6477,-0.20955 0.34925,-0.20955 0.71755,-0.635 0.01905,-0.019 0.10795,-0.13335 0.06985,-0.0889 0.1841499,-0.24765 0.2794,-0.42545 0.4191,-0.8128 0.1397,-0.3937 0.1397,-0.70485 0,-0.14605 -0.0254,-0.24765 -0.0889,-0.43815 -0.47625,-0.43815 -0.1397,0 -0.3365499,0.0698 -0.2794,0.1016 -0.55245,0.38735 -0.40005,0.4191 -0.40005,0.85725 0,0.254 0.1397,0.41275 0.1397,0.15875 0.38735,0.15875 0.0762,0 0.1524,-0.019 l 0.14605,-0.0444 q 0.05715,-0.0254 0.1143,-0.0572 0.05715,-0.0317 0.127,-0.0825 l 0.09525,-0.0762 0.0254,-0.0254 0.04445,-0.019 v 0.0317 q -0.0127,0.0381 -0.06985,0.0889 -0.0508,0.0444 -0.1777999,0.13335 -0.17145,0.12065 -0.3175,0.1778 -0.14605,0.0508 -0.31115,0.0508 -0.0508,0 -0.06985,0 -0.254,0 -0.4064,-0.14605 -0.1524,-0.14605 -0.1524,-0.38735 0,-0.0572 0,-0.1143 0.01905,-0.0571 0.0254,-0.0826 0.04445,-0.1651 0.10795,-0.2921 0.0635,-0.127 0.1905,-0.29845 0.19685,-0.28575 0.4572,-0.4826 0.26035,-0.2032 0.5842,-0.33655 0.2031999,-0.0825 0.3873499,-0.0825 0.2667,0 0.4191,0.1778 0.15875,0.17145 0.15875,0.4826 z m 14.5110402,-6.72465 -0.0127,0.0952 -0.0064,0.0762 v 0.0254 l -0.0254,0.4318 q 0,0.2667 -0.0381,0.43815 -0.03175,0.1651 -0.09525,0.29845 -0.29845,0.5715 -0.90805,0.5715 -0.24765,0 -0.34925,-0.0318 -0.1016,-0.0254 -0.1016,-0.1143 0,-0.0381 0.04445,-0.10795 l 0.01905,-0.0317 q 0.04445,-0.0508 0.09525,-0.0826 l 0.03175,0.019 v 0.0254 l -0.0127,0.0635 q -0.01905,0.15875 0.12065,0.19685 0.0381,0.0127 0.10795,0 0.06985,-0.019 0.18415,-0.0825 0.10795,-0.0635 0.2032,-0.18415 0.0889,-0.12065 0.1905,-0.3556 0.06985,-0.17145 0.1016,-0.3937 0.03175,-0.2286 0.03175,-0.48895 0,-0.0508 -0.0127,-0.0952 -0.0127,-0.0445 -0.03175,-0.1143 l -0.13335,0.1778 -0.0635,0.0889 -0.08255,0.1143 -0.04445,0.0762 -0.08255,0.1016 -0.01905,0.0381 -0.03175,0.0317 -0.05715,0.0762 -0.0254,0.0127 -0.01905,-0.0127 0.0064,-0.0254 0.0127,-0.019 0.0254,-0.0444 0.0127,-0.019 0.0127,-0.019 0.05715,-0.0762 0.05715,-0.0762 q 0.0762,-0.0953 0.08255,-0.10795 0.03175,-0.0444 0.0508,-0.0953 0.10795,-0.15875 0.22225,-0.32385 h 0.1016 q 0.20955,0 0.381,-0.0571 z m -0.615753,-1.11125 -0.06985,0.10795 -0.74295,1.0541 -0.0762,-0.006 0.45085,-1.0795 0.05715,-0.1143 q 0.12065,-0.22225 0.3175,-0.2032 0.1143,0 0.1143,0.0952 0,0.0572 -0.0508,0.14605 z m -1.433214,1.9685 -0.0381,0.0572 -0.0889,0.10795 -0.05715,0.0762 -0.0381,0.0444 -0.1143,0.127 -0.1397,0.1524 -0.04445,0.0444 -0.0762,0.0762 q -0.22225,0.2159 -0.34925,0.29845 -0.127,0.0825 -0.2413,0.0825 -0.17145,0 -0.27305,-0.10795 -0.1016,-0.1143 -0.0762,-0.2667 0.01905,-0.0698 0.0508,-0.13335 0.03175,-0.0635 0.09525,-0.17145 0.09525,-0.1397 0.12065,-0.17145 0.08255,-0.10795 0.2159,-0.254 0.1397,-0.1524 0.26035,-0.26035 0.12065,-0.1143 0.254,-0.20955 -0.03175,0.0254 -0.06985,0.0254 -0.0889,0.019 -0.1524,0.019 -0.13335,0 -0.20955,-0.0889 l -0.19685,0.2286 -0.0381,0.0508 -0.18415,0.254 q -0.0254,0.0254 -0.04445,0.0381 -0.0064,0 -0.0127,0.006 l -0.01905,-0.0191 0.0063,-0.0254 0.0254,-0.0317 0.09525,-0.13335 0.06985,-0.0952 0.05715,-0.0889 0.23495,-0.3429 0.0254,-0.0508 0.0508,-0.0889 q 0.127,0.127 0.3429,0.127 0.04445,-0.006 0.06985,-0.006 l 0.06985,-0.019 0.127,-0.0254 0.1778,-0.0444 -0.1016,0.1143 -0.09525,0.1016 -0.14605,0.18415 -0.254,0.3429 q -0.2413,0.3429 -0.3175,0.4699 -0.06985,0.127 -0.06985,0.2032 0,0.254 0.17145,0.22225 0.12065,-0.0381 0.29845,-0.1905 l 0.0762,-0.0762 0.0508,-0.0571 0.12065,-0.1143 0.10795,-0.12065 0.05715,-0.0571 0.1397,-0.18415 0.04445,-0.0635 h 0.03175 q 0.0063,0.0317 0,0.0444 z m -1.384895,0.006 -0.0254,0.0508 -0.4826,0.55245 -0.10795,0.1016 q -0.20955,0.1778 -0.3556,0.254 -0.14605,0.0762 -0.3429,0.1143 -0.0762,0.0127 -0.127,0.0127 -0.0381,0 -0.1651,-0.0191 -0.127,-0.0127 -0.22225,-0.13335 -0.1016,-0.127 -0.1016,-0.31115 0,-0.0826 0.0064,-0.127 0.0063,-0.0445 0.04445,-0.13335 0.0889,-0.2159 0.27305,-0.43815 0.1778,-0.2286 0.4318,-0.41275 0.26035,-0.1905 0.4699,-0.2667 0.26035,-0.0953 0.41275,-0.0953 0.0381,0 0.15875,0.0254 0.12065,0.019 0.12065,0.1651 0,0.0889 -0.0635,0.1905 -0.06985,0.0889 -0.1905,0.18415 -0.15875,0.12065 -0.40005,0.2413 -0.10795,0.0508 -0.2286,0.0953 -0.1143,0.0444 -0.20955,0.0698 l -0.2413,0.0699 q -0.0127,0.006 -0.0762,0.1524 -0.08255,0.1778 -0.09525,0.23495 -0.0127,0.0572 -0.0127,0.0889 0,0.24765 0.33655,0.24765 0.10795,0 0.2413,-0.0635 0.1397,-0.0635 0.27305,-0.17145 l 0.127,-0.10795 0.05715,-0.0635 0.2794,-0.31115 0.13335,-0.15875 0.0508,-0.0762 0.03175,0.0127 z m -0.27305,-0.5461 q 0.0127,-0.0254 0.01905,-0.0635 0.0063,-0.0318 0.0063,-0.0572 0,-0.0889 -0.05715,-0.1016 -0.0508,-0.019 -0.0635,-0.019 -0.0635,0 -0.1143,0.0254 -0.04445,0.0254 -0.12065,0.0889 -0.12065,0.1016 -0.19685,0.17145 -0.0762,0.0699 -0.17145,0.1651 -0.13335,0.13335 -0.2667,0.3302 l -0.08255,0.1143 0.0889,-0.0127 q 0.0508,-0.006 0.06985,-0.0127 0.03175,-0.0127 0.0635,-0.0254 0.1651,-0.0572 0.2794,-0.1143 0.12065,-0.0571 0.23495,-0.1524 0.12065,-0.0952 0.1905,-0.17145 0.0762,-0.0762 0.12065,-0.1651 z m -1.303834,0.53975 -0.04445,0.0572 -0.06985,0.0952 -0.0508,0.0635 -0.0762,0.0825 -0.1016,0.1143 q -0.1524,0.1778 -0.28575,0.2921 -0.1016,0.0826 -0.1524,0.12065 -0.0508,0.0381 -0.13335,0.0825 -0.17145,0.10795 -0.254,0.1397 -0.08255,0.0318 -0.18415,0.0318 -0.12065,0 -0.1905,-0.0762 -0.06985,-0.0762 -0.06985,-0.1905 0,-0.0572 0.0254,-0.13335 0.0254,-0.0762 0.1143,-0.22225 0.09525,-0.1524 0.2921,-0.38735 l 0.09525,-0.127 q 0.12065,-0.1651 0.20955,-0.29845 0.09525,-0.1397 0.09525,-0.20955 0,-0.13335 -0.13335,-0.13335 -0.01905,0 -0.06985,0.0127 -0.17145,0.0381 -0.3683,0.19685 l -0.1016,0.0762 -0.06985,0.0698 -0.1016,0.0953 -0.1143,0.1016 -0.79375,1.1811 h -0.4445 l 1.11125,-1.64465 q 0.0635,-0.0825 0.0508,-0.19685 h 0.4445 q 0,0.0635 -0.01905,0.1143 -0.0127,0.0508 -0.05715,0.1016 l -0.2413,0.31115 0.2159,-0.18415 0.18415,-0.1524 0.03175,-0.0254 0.1016,-0.0698 q 0.22225,-0.13335 0.4191,-0.1524 0.1651,-0.0254 0.2667,0.0698 0.1016,0.0953 0.08255,0.23495 -0.01905,0.12065 -0.0889,0.2413 -0.0635,0.1143 -0.17145,0.2667 l -0.1397,0.1778 -0.17145,0.22225 q -0.1524,0.2159 -0.19685,0.29845 -0.0381,0.0825 -0.03175,0.1524 0,0.0952 0.1016,0.0952 0.03175,0 0.06985,-0.019 0.1016,-0.0381 0.15875,-0.0698 0.05715,-0.0381 0.2032,-0.1524 0.0508,-0.0445 0.1016,-0.0953 0.0762,-0.0698 0.1651,-0.17145 l 0.10795,-0.127 0.06985,-0.0698 q 0.03175,-0.0445 0.06985,-0.0953 0.0381,-0.0508 0.04445,-0.0698 0.0508,-0.0635 0.0762,-0.0572 z m -2.236291,-0.80645 -1.0541,1.56845 -0.1524,0.23495 -0.3302,0.4826 -0.15875,0.2032 q -0.2286,0.26035 -0.4445,0.4064 -0.2159004,0.14605 -0.4572004,0.20955 l -0.1269999,0.0317 -0.0762,0.0127 -0.0889,0.006 -0.0635,0.006 h -0.05715 -0.0635 l -0.1651,-0.0254 q -0.12065,-0.0445 -0.18415,-0.0889 -0.09525,-0.0762 -0.09525,-0.1905 0,-0.1143 0.08255,-0.1778 0.05715,-0.0381 0.127,-0.0381 0.10795,0 0.127,0.0826 v 0.0444 l -0.00635,0.0318 -0.03175,0.0444 q -0.0254,0.019 -0.0254,0.0698 0.00635,0.0762 0.1143,0.14605 0.1016,0.0317 0.14605,0.0381 l 0.0635,0.006 h 0.04445 q 0.04445,0 0.08255,-0.006 0.0381,-0.006 0.1714499,-0.0508 0.15875,-0.0635 0.2921,-0.18415 0.1333504,-0.1143 0.2794004,-0.3302 l 0.0635,-0.0889 0.20955,-0.32385 0.28575,-0.43815 0.08255,-0.13335 0.0762,-0.14605 -0.04445,0.0445 -0.12065,0.1143 q -0.13335,0.127 -0.3937,0.2794 -0.0508,0.0317 -0.12065,0.0508 -0.0762,0.019 -0.127,0.019 -0.2794004,0 -0.3302004,-0.28575 -0.00635,-0.0317 -0.00635,-0.10795 0,-0.3175 0.2349504,-0.6604 0.2667,-0.3937 0.74295,-0.6731 0.06985,-0.0444 0.0889,-0.0571 0.0381,-0.019 0.1016,-0.0444 0.2667,-0.1143 0.4191,-0.1143 0.1905,0 0.27305,0.20955 l 0.0063,0.0508 0.1524,-0.2286 z m -0.7239,0.3302 q 0.01905,-0.0571 0.01905,-0.10795 0,-0.0826 -0.04445,-0.127 -0.0381,-0.0508 -0.1016,-0.0508 -0.18415,0 -0.38735,0.15875 -0.2413,0.1905 -0.5969,0.6731 l -0.10795,0.17145 q -0.1016,0.1905 -0.13335,0.28575 -0.03175,0.0889 -0.03175,0.15875 0,0.22225 0.17145,0.22225 0.0381,0 0.05715,-0.006 0.1397,-0.0254 0.26035,-0.10795 0.127,-0.0889 0.31115,-0.31115 l 0.06985,-0.0953 0.0508,-0.0762 0.0762,-0.10795 0.0254,-0.0445 0.1778,-0.27305 q 0.04445,-0.0699 0.1016,-0.1778 0.05715,-0.1143 0.08255,-0.18415 z m -1.230809,-1.11125 q 0,0.0635 -0.0508,0.1651 -0.0508,0.0953 -0.1651,0.1778 -0.03175,0.019 -0.08255,0.0445 -0.04445,0.019 -0.1015998,0.019 -0.1524,0 -0.1905,-0.13335 -0.0127,-0.0508 -0.0127,-0.0699 0,-0.14605 0.1524,-0.2667 0.1523998,-0.127 0.2666998,-0.127 0.18415,0 0.18415,0.1905 z m -0.12065,1.5621 -0.0063,0.0317 -0.03175,0.0508 -0.0127,0.0127 -0.08255,0.1016 -0.04445,0.0635 -0.0635,0.0698 -0.1143,0.1143 -0.10795,0.12065 -0.06985,0.0698 -0.0762,0.0826 q -0.24765,0.23495 -0.40005,0.3175 -0.1524,0.0826 -0.28575,0.0826 -0.14605,0 -0.2286,-0.0889 -0.08255,-0.0889 -0.08255,-0.22225 0,-0.0318 0.01905,-0.0953 0.0127,-0.0699 0.03175,-0.12065 0.0127,-0.0317 0.09525,-0.17145 l 0.0508,-0.0762 0.55245,-0.8255 q 0.0889,-0.1397 0.0889,-0.2159 0,-0.0508 -0.0127,-0.0826 h 0.46355 q 0.0127,0.0635 0.0127,0.0762 0,0.0825 -0.10795,0.22225 l -0.64135,0.9525 -0.05715,0.0889 q -0.0508,0.0825 -0.06985,0.15875 -0.01905,0.0698 -0.01905,0.13335 0,0.10795 0.09525,0.10795 0.04445,-0.006 0.1016,-0.0381 0.05715,-0.0317 0.1016,-0.0508 0.0381,-0.019 0.1016,-0.0762 0.01905,-0.0127 0.127,-0.1143 l 0.0889,-0.0699 0.09525,-0.0889 0.1016,-0.1016 0.05715,-0.0698 0.10795,-0.12065 q 0.09525,-0.10795 0.13335,-0.1778 l 0.0381,-0.0508 0.0254,-0.0127 z m -1.5916668,-0.83185 -0.0127,0.0952 -0.00635,0.0762 v 0.0254 l -0.0254,0.4318 q 0,0.2667 -0.0381,0.43815 -0.03175,0.1651 -0.09525,0.29845 -0.29845,0.5715 -0.90805,0.5715 -0.24765,0 -0.34925,-0.0318 -0.1015999,-0.0254 -0.1015999,-0.1143 0,-0.0381 0.04445,-0.10795 l 0.01905,-0.0317 q 0.04445,-0.0508 0.09525,-0.0826 l 0.03175,0.019 v 0.0254 l -0.0127,0.0635 q -0.01905,0.15875 0.12065,0.19685 0.0381,0.0127 0.10795,0 0.06985,-0.019 0.18415,-0.0825 0.10795,-0.0635 0.2032,-0.18415 0.0889,-0.12065 0.1905,-0.3556 0.06985,-0.17145 0.1016,-0.3937 0.03175,-0.2286 0.03175,-0.48895 0,-0.0508 -0.0127,-0.0952 -0.0127,-0.0445 -0.03175,-0.1143 l -0.13335,0.1778 -0.0635,0.0889 -0.08255,0.1143 -0.04445,0.0762 -0.08255,0.1016 -0.01905,0.0381 -0.03175,0.0317 -0.05715,0.0762 -0.0254,0.0127 -0.01905,-0.0127 0.00635,-0.0254 0.0127,-0.019 0.0254,-0.0444 0.0127,-0.019 0.0127,-0.019 0.05715,-0.0762 0.05715,-0.0762 q 0.0762,-0.0953 0.08255,-0.10795 0.03175,-0.0444 0.0508,-0.0953 0.10795,-0.15875 0.22225,-0.32385 h 0.1016 q 0.20955,0 0.381,-0.0571 z m -0.9657955,0.8636 -0.0254,0.0508 -0.4826,0.55245 -0.10795,0.1016 q -0.20955,0.1778 -0.3556,0.254 -0.14605,0.0762 -0.3429,0.1143 -0.0762,0.0127 -0.127,0.0127 -0.0381,0 -0.1651,-0.0191 -0.127,-0.0127 -0.22225,-0.13335 -0.1016,-0.127 -0.1016,-0.31115 0,-0.0826 0.00635,-0.127 0.00635,-0.0445 0.04445,-0.13335 0.0889,-0.2159 0.27305,-0.43815 0.1778,-0.2286 0.4318,-0.41275 0.26035,-0.1905 0.4699,-0.2667 0.26035,-0.0953 0.41275,-0.0953 0.0381,0 0.15875,0.0254 0.12065,0.019 0.12065,0.1651 0,0.0889 -0.0635,0.1905 -0.06985,0.0889 -0.1905,0.18415 -0.15875,0.12065 -0.40005,0.2413 -0.10795,0.0508 -0.2286,0.0953 -0.1143,0.0444 -0.20955,0.0698 l -0.2413,0.0699 q -0.0127,0.006 -0.0762,0.1524 -0.08255,0.1778 -0.09525,0.23495 -0.0127,0.0572 -0.0127,0.0889 0,0.24765 0.33655,0.24765 0.10795,0 0.2413,-0.0635 0.1397,-0.0635 0.27305,-0.17145 l 0.127,-0.10795 0.05715,-0.0635 0.2794,-0.31115 0.13335,-0.15875 0.0508,-0.0762 0.03175,0.0127 z m -0.27305,-0.5461 q 0.0127,-0.0254 0.01905,-0.0635 0.00635,-0.0318 0.00635,-0.0572 0,-0.0889 -0.05715,-0.1016 -0.0508,-0.019 -0.0635,-0.019 -0.0635,0 -0.1143,0.0254 -0.04445,0.0254 -0.12065,0.0889 -0.12065,0.1016 -0.19685,0.17145 -0.0762,0.0699 -0.17145,0.1651 -0.13335,0.13335 -0.2667,0.3302 l -0.08255,0.1143 0.0889,-0.0127 q 0.0508,-0.006 0.06985,-0.0127 0.03175,-0.0127 0.0635,-0.0254 0.1651,-0.0572 0.2794,-0.1143 0.12065,-0.0571 0.23495,-0.1524 0.12065,-0.0952 0.1905,-0.17145 0.0762,-0.0762 0.12065,-0.1651 z m -1.6723319,0.41275 -0.13335,0.19685 q -0.4826,0.64135 -1.31445,0.8636 -0.3809999,0.10795 -0.7048499,0.10795 -0.2667,0 -0.56515,-0.0635 l -0.3556,-0.0889 -0.1778,-0.0571 q -0.0508,0.019 -0.09525,0.0381 -0.0381,0.0127 -0.10795,0.0254 -0.50165,0.15875 -0.85725,0.15875 -0.19685,0 -0.3429,-0.0508 -0.1524,-0.0508 -0.1778,-0.0635 -0.0508,-0.0254 -0.0889,-0.0699 -0.04445,-0.0444 -0.04445,-0.10795 0,-0.0889 0.10795,-0.17145 0.1016,-0.0825 0.20955,-0.1143 0.10795,-0.0318 0.3556,-0.0318 0.19685,0 0.31115,0.0127 0.12065,0.006 0.36195,0.0508 l 0.2159,0.0444 0.127,0.0317 q 0.1016,-0.0952 0.18415,-0.1778 0.0889,-0.0889 0.19685,-0.23495 l 0.1143,-0.15875 0.09525,-0.13335 0.1016,-0.1524 0.3429,-0.51435 0.08255,-0.12065 q 0.32385,-0.43815 0.5333999,-0.635 0.2159,-0.19685 0.3937,-0.3048 0.1778,-0.1143 0.3683,-0.17145 l 0.03175,-0.006 0.127,-0.0381 q 0.0381,-0.006 0.09525,0 0.00635,0 0.01905,0 v 0.0317 l -0.01905,0.0127 -0.0889,0.0191 q -0.09525,0.0127 -0.26035,0.17145 -0.20955,0.2032 -0.48895,0.61595 l -0.09525,0.1524 -0.06985,0.1143 -0.05715,0.1143 -0.127,0.2032 -0.24765,0.381 q -0.2794,0.4064 -0.5461,0.64135 l -0.04445,0.0381 -0.2286,0.1778 -0.0762,0.0699 0.08255,0.0317 0.0762,0.0317 0.1524,0.0508 q 0.4318,0.13335 0.70485,0.13335 0.3174999,0 0.6413499,-0.15875 0.3302,-0.1651 0.62865,-0.5461 0.12065,-0.1397 0.2032,-0.29845 0.2286,-0.3937 0.29845,-0.71755 0.0762,-0.32385 0.0762,-0.5461 0,-0.0953 -0.00635,-0.1397 -0.0508,-0.4953 -0.40005,-0.7747 -0.3429,-0.28575 -0.94615,-0.28575 -0.2158999,0 -0.5143499,0.0444 -0.29845,0.0445 -0.62865,0.2159 -0.2667,0.1397 -0.41275,0.24765 -0.14605,0.1016 -0.254,0.22225 -0.19685,0.20955 -0.2921,0.36195 -0.0889,0.1524 -0.127,0.32385 l -0.0127,0.12065 q 0,0.2413 0.12065,0.38735 0.127,0.1397 0.34925,0.1397 0.0381,0 0.1143,-0.0127 0.0635,-0.019 0.13335,-0.0381 0.06985,-0.0254 0.1397,-0.0571 0.12065,-0.0572 0.18415,-0.12065 l 0.10795,-0.0762 q 0.0127,-0.0127 0.04445,0.006 -0.0127,0.0254 -0.01905,0.0381 -0.0381,0.0508 -0.09525,0.0952 l -0.19685,0.14605 -0.1524,0.0826 q -0.1016,0.0571 -0.22225,0.0952 -0.1143,0.0318 -0.22225,0.0318 -0.05715,0.006 -0.08255,0.006 -0.254,0 -0.4191,-0.1524 -0.15875,-0.15875 -0.15875,-0.4064 0,-0.0571 0.0127,-0.1524 0.0127,-0.1016 0.12065,-0.31115 0.1143,-0.24765 0.3683,-0.4826 0.28575,-0.2667 0.71755,-0.4826 0.46355,-0.23495 0.9398,-0.31115 0.20955,-0.0381 0.4127499,-0.0381 0.2032,0 0.36195,0.0127 0.1651,0.0127 0.31115,0.0508 0.51435,0.12065 0.8128,0.50165 0.3048,0.381 0.3048,0.89535 0,0.51435 -0.3175,1.0287 z m -3.5115499,0.8763 -0.0508,-0.0127 -0.127,-0.0508 q -0.13335,-0.0635 -0.19685,-0.0826 -0.05715,-0.019 -0.1524,-0.0381 -0.2286,-0.0444 -0.3429,-0.0444 -0.06985,0 -0.10795,0.019 -0.08255,0.0127 -0.17145,0.0635 -0.0889,0.0445 -0.0889,0.1397 0,0.0699 0.06985,0.127 0.0635,0.0572 0.1651,0.0889 0.1016,0.0254 0.2794,0.0254 l 0.1397,-0.0127 q 0.23495,-0.0381 0.3556,-0.0826 0.12065,-0.0444 0.2286,-0.1397 z m 12.7991201,-8.68045 -0.0254,0.0508 -0.4826,0.55245 -0.10795,0.1016 q -0.20955,0.1778 -0.3556,0.254 -0.14605,0.0762 -0.3429,0.1143 -0.0762,0.0127 -0.127,0.0127 -0.0381,0 -0.1651,-0.019 -0.127,-0.0127 -0.22225,-0.13335 -0.1016,-0.127 -0.1016,-0.31115 0,-0.0825 0.0063,-0.127 0.0064,-0.0444 0.04445,-0.13335 0.0889,-0.2159 0.27305,-0.43815 0.1778,-0.2286 0.4318,-0.41275 0.26035,-0.1905 0.4699,-0.2667 0.26035,-0.0952 0.41275,-0.0952 0.0381,0 0.15875,0.0254 0.12065,0.019 0.12065,0.1651 0,0.0889 -0.0635,0.1905 -0.06985,0.0889 -0.1905,0.18415 -0.15875,0.12065 -0.40005,0.2413 -0.10795,0.0508 -0.2286,0.0953 -0.1143,0.0444 -0.20955,0.0699 l -0.2413,0.0698 q -0.0127,0.006 -0.0762,0.1524 -0.08255,0.1778 -0.09525,0.23495 -0.0127,0.0571 -0.0127,0.0889 0,0.24765 0.33655,0.24765 0.10795,0 0.2413,-0.0635 0.1397,-0.0635 0.27305,-0.17145 l 0.127,-0.10795 0.05715,-0.0635 0.2794,-0.31115 0.13335,-0.15875 0.0508,-0.0762 0.03175,0.0127 z m -0.27305,-0.5461 q 0.0127,-0.0254 0.01905,-0.0635 0.0064,-0.0317 0.0064,-0.0572 0,-0.0889 -0.05715,-0.1016 -0.0508,-0.019 -0.0635,-0.019 -0.0635,0 -0.1143,0.0254 -0.04445,0.0254 -0.12065,0.0889 -0.12065,0.1016 -0.19685,0.17145 -0.0762,0.0699 -0.17145,0.1651 -0.13335,0.13335 -0.2667,0.3302 l -0.08255,0.1143 0.0889,-0.0127 q 0.0508,-0.006 0.06985,-0.0127 0.03175,-0.0127 0.0635,-0.0254 0.1651,-0.0572 0.2794,-0.1143 0.12065,-0.0571 0.23495,-0.1524 0.12065,-0.0952 0.1905,-0.17145 0.0762,-0.0762 0.12065,-0.1651 z m -1.418234,-0.2794 -0.0063,0.1143 -0.0254,0.0825 -0.0127,0.0572 q -0.0635,0.1905 -0.1397,0.3302 -0.0762,0.13335 -0.2794,0.4064 l -0.1397,0.1905 -0.05715,0.0762 q -0.1524,0.19685 -0.3302,0.33655 -0.12065,0.1016 -0.24765,0.17145 -0.13335,0.0889 -0.2159,0.12065 -0.0889,0.0317 -0.18415,0.0317 -0.1524,0 -0.26035,-0.1016 -0.10795,-0.1016 -0.10795,-0.2667 0,-0.0571 0.0254,-0.1397 0.01905,-0.0889 0.0635,-0.19685 0.04445,-0.10795 0.13335,-0.2667 l 0.1016,-0.1651 0.33655,-0.50165 q 0.0889,-0.13335 0.0889,-0.2032 0,-0.0254 -0.0127,-0.0635 h 0.4191 q 0.01905,0.0508 0.01905,0.0825 0,0.0572 -0.0254,0.1016 -0.0254,0.0444 -0.0762,0.1143 l -0.3683,0.53975 -0.10795,0.1905 q -0.12065,0.20955 -0.14605,0.3175 -0.0508,0.13335 -0.0508,0.1905 0,0.0953 0.0635,0.1524 0.05715,0.0572 0.15875,0.0445 0.14605,-0.0317 0.3556,-0.1905 0.10795,-0.0889 0.2921,-0.3048 0.22225,-0.29845 0.3429,-0.5588 0.127,-0.2667 0.1524,-0.4572 v -0.0381 -0.0445 l -0.0064,-0.0317 -0.0127,-0.0254 -0.0127,-0.0317 -0.0063,-0.019 -0.0064,-0.0254 v -0.0127 q 0.0381,-0.0762 0.1016,-0.0952 0.0635,-0.019 0.0762,-0.019 0.10795,0 0.10795,0.10795 z m -1.472108,-0.76835 q 0,0.0635 -0.0508,0.1651 -0.0508,0.0953 -0.1651,0.1778 -0.03175,0.019 -0.08255,0.0444 -0.04445,0.019 -0.1016,0.019 -0.1524,0 -0.1905,-0.13335 -0.0127,-0.0508 -0.0127,-0.0699 0,-0.14605 0.1524,-0.2667 0.1524,-0.127 0.2667,-0.127 0.18415,0 0.18415,0.1905 z m -0.12065,1.5621 -0.0063,0.0317 -0.03175,0.0508 -0.0127,0.0127 -0.08255,0.1016 -0.04445,0.0635 -0.0635,0.0699 -0.1143,0.1143 -0.10795,0.12065 -0.06985,0.0699 -0.0762,0.0825 q -0.24765,0.23495 -0.40005,0.3175 -0.1524,0.0825 -0.28575,0.0825 -0.14605,0 -0.2286,-0.0889 -0.08255,-0.0889 -0.08255,-0.22225 0,-0.0317 0.01905,-0.0952 0.0127,-0.0699 0.03175,-0.12065 0.0127,-0.0317 0.09525,-0.17145 l 0.0508,-0.0762 0.55245,-0.8255 q 0.0889,-0.1397 0.0889,-0.2159 0,-0.0508 -0.0127,-0.0825 h 0.46355 q 0.0127,0.0635 0.0127,0.0762 0,0.0825 -0.10795,0.22225 l -0.64135,0.9525 -0.05715,0.0889 q -0.0508,0.0825 -0.06985,0.15875 -0.01905,0.0699 -0.01905,0.13335 0,0.10795 0.09525,0.10795 0.04445,-0.006 0.1016,-0.0381 0.05715,-0.0318 0.1016,-0.0508 0.0381,-0.019 0.1016,-0.0762 0.01905,-0.0127 0.127,-0.1143 l 0.0889,-0.0698 0.09525,-0.0889 0.1016,-0.1016 0.05715,-0.0699 0.10795,-0.12065 q 0.09525,-0.10795 0.13335,-0.1778 l 0.0381,-0.0508 0.0254,-0.0127 z m -0.815678,-0.78105 -0.04445,0.0825 h -0.61595 l -0.7302497,1.08585 -0.14605,0.19685 q -0.0762,0.10795 -0.0508,0.23495 0.01905,0.0762 0.0889,0.1143 0.0635,0.0381 0.14605,0.019 0.0254,-0.0127 0.06985,-0.0317 0.0381,-0.0191 0.14605,-0.1016 l 0.0508,-0.0444 0.06985,-0.0572 0.1206497,-0.13335 0.1651,-0.1651 0.0635,-0.0762 0.0889,-0.10795 0.1397,-0.1651 0.0508,-0.0762 h 0.0254 q 0.0254,0.0191 0.0064,0.0508 l -0.01905,0.0318 -0.03175,0.0381 -0.03175,0.0381 -0.09525,0.127 -0.14605,0.1651 -0.18415,0.19685 -0.1904997,0.1905 -0.04445,0.0445 -0.1016,0.0825 q -0.1397,0.1143 -0.24765,0.1524 -0.1143,0.0445 -0.2413,0.0445 -0.13335,0 -0.2286,-0.10795 -0.09525,-0.1143 -0.09525,-0.254 0,-0.0317 0.01905,-0.1143 0.0127,-0.0825 0.0889,-0.18415 l 0.0762,-0.1143 0.7239,-1.0795 h -0.31115 l 0.0254,-0.0825 h 0.34925 l 0.3428997,-0.508 q 0.0635,-0.0889 0.0889,-0.1524 0.03175,-0.0635 0.03175,-0.1143 h 0.4064 q 0.0127,0.0699 -0.0063,0.12065 -0.01905,0.0508 -0.09525,0.17145 l -0.3302,0.4826 z m -1.5375925,0.78105 -0.00635,0.0317 -0.01905,0.0381 -0.0254,0.0254 -0.10795,0.13335 -0.01905,0.0317 -0.0762,0.0762 -0.09525,0.1016 -0.09525,0.1016 -0.05715,0.0699 -0.127,0.12065 q -0.09525,0.0889 -0.1651,0.14605 -0.0635,0.0572 -0.09525,0.0825 -0.20955,0.1524 -0.3302,0.1524 -0.1397,0.0127 -0.22225,-0.0699 -0.08255,-0.0825 -0.08255,-0.23495 l 0.0127,-0.127 0.04445,-0.1524 -0.09525,0.0953 -0.12065,0.1143 -0.09525,0.0952 q -0.23495,0.2032 -0.4064,0.26035 -0.06985,0.019 -0.13335,0.019 -0.15875,0 -0.254,-0.0952 -0.1016,-0.1016 -0.1016,-0.2794 0,-0.3175 0.19685,-0.61595 0.2286,-0.34925 0.7112,-0.66675 0.1524,-0.0952 0.3048,-0.1651 0.1524,-0.0699 0.24765,-0.0825 0.09525,-0.019 0.13335,-0.019 0.1651,0 0.24765,0.0762 0.0889,0.0762 0.0762,0.18415 l 0.1524,-0.2286 h 0.42545 l -0.8636,1.27 -0.0508,0.0889 q -0.03175,0.0635 -0.05715,0.12065 -0.01905,0.0508 -0.01905,0.1143 0,0.127 0.1143,0.1397 0.0381,0 0.17145,-0.0699 0.04445,-0.0254 0.09525,-0.0699 0.0127,-0.006 0.10795,-0.1016 l 0.127,-0.127 0.1397,-0.14605 0.0254,-0.0254 0.0635,-0.0699 0.1016,-0.1143 0.13335,-0.1778 0.0381,-0.0508 0.03175,-0.0127 z m -0.86995,-0.48895 q 0.00635,-0.0254 0.00635,-0.0762 0,-0.1778 -0.1905,-0.1778 -0.12065,0 -0.2667,0.10795 -0.1397,0.1016 -0.4318,0.41275 l -0.1016,0.1143 -0.0508,0.0572 -0.1143,0.1651 q -0.0635,0.0825 -0.127,0.1905 -0.06985,0.1016 -0.0762,0.12065 -0.0508,0.1016 -0.06985,0.1778 -0.01905,0.0699 -0.0127,0.1143 0.01905,0.18415 0.2032,0.18415 0.06985,0 0.13335,-0.0254 0.06985,-0.0254 0.17145,-0.10795 0.10795,-0.0889 0.28575,-0.28575 l 0.0889,-0.1016 q 0.06985,-0.0889 0.0889,-0.1143 0.0635,-0.0825 0.0762,-0.1143 l 0.1143,-0.17145 0.06985,-0.1016 q 0.1397,-0.20955 0.17145,-0.26035 0.03175,-0.0572 0.03175,-0.10795 z m -1.467445,0.5207 -0.0254,0.0508 -0.4826,0.55245 -0.10795,0.1016 q -0.20955,0.1778 -0.3556,0.254 -0.14605,0.0762 -0.3429,0.1143 -0.0762,0.0127 -0.127,0.0127 -0.0381,0 -0.1651,-0.019 -0.127,-0.0127 -0.22225,-0.13335 -0.1016,-0.127 -0.1016,-0.31115 0,-0.0825 0.00635,-0.127 0.00635,-0.0444 0.04445,-0.13335 0.0889,-0.2159 0.27305,-0.43815 0.1778,-0.2286 0.4318,-0.41275 0.26035,-0.1905 0.4699,-0.2667 0.26035,-0.0952 0.41275,-0.0952 0.0381,0 0.15875,0.0254 0.12065,0.019 0.12065,0.1651 0,0.0889 -0.0635,0.1905 -0.06985,0.0889 -0.1905,0.18415 -0.15875,0.12065 -0.40005,0.2413 -0.10795,0.0508 -0.2286,0.0953 -0.1143,0.0444 -0.20955,0.0699 l -0.2413,0.0698 q -0.0127,0.006 -0.0762,0.1524 -0.08255,0.1778 -0.09525,0.23495 -0.0127,0.0571 -0.0127,0.0889 0,0.24765 0.33655,0.24765 0.10795,0 0.2413,-0.0635 0.1397,-0.0635 0.27305,-0.17145 l 0.127,-0.10795 0.05715,-0.0635 0.2794,-0.31115 0.13335,-0.15875 0.0508,-0.0762 0.03175,0.0127 z m -0.27305,-0.5461 q 0.0127,-0.0254 0.01905,-0.0635 0.00635,-0.0317 0.00635,-0.0572 0,-0.0889 -0.05715,-0.1016 -0.0508,-0.019 -0.0635,-0.019 -0.0635,0 -0.1143,0.0254 -0.04445,0.0254 -0.12065,0.0889 -0.12065,0.1016 -0.19685,0.17145 -0.0762,0.0699 -0.17145,0.1651 -0.13335,0.13335 -0.2667,0.3302 l -0.08255,0.1143 0.0889,-0.0127 q 0.0508,-0.006 0.06985,-0.0127 0.03175,-0.0127 0.0635,-0.0254 0.1651,-0.0572 0.2794,-0.1143 0.12065,-0.0571 0.23495,-0.1524 0.12065,-0.0952 0.1905,-0.17145 0.0762,-0.0762 0.12065,-0.1651 z m -1.306215,0.53975 -0.0381,0.0572 -0.0889,0.10795 -0.05715,0.0762 -0.0381,0.0445 -0.1143,0.127 -0.1397,0.1524 -0.04445,0.0445 -0.0762,0.0762 q -0.22225,0.2159 -0.34925,0.29845 -0.127,0.0825 -0.2412999,0.0825 -0.17145,0 -0.27305,-0.10795 -0.1016,-0.1143 -0.0762,-0.2667 0.01905,-0.0699 0.0508,-0.13335 0.03175,-0.0635 0.09525,-0.17145 0.09525,-0.1397 0.12065,-0.17145 0.08255,-0.10795 0.2158999,-0.254 0.1397,-0.1524 0.26035,-0.26035 0.12065,-0.1143 0.254,-0.20955 -0.03175,0.0254 -0.06985,0.0254 -0.0889,0.019 -0.1524,0.019 -0.13335,0 -0.20955,-0.0889 l -0.1968499,0.2286 -0.0381,0.0508 -0.18415,0.254 q -0.0254,0.0254 -0.04445,0.0381 -0.00635,0 -0.0127,0.006 l -0.01905,-0.019 0.00635,-0.0254 0.0254,-0.0318 0.09525,-0.13335 0.06985,-0.0953 0.05715,-0.0889 0.2349499,-0.3429 0.0254,-0.0508 0.0508,-0.0889 q 0.127,0.127 0.3429,0.127 0.04445,-0.006 0.06985,-0.006 l 0.06985,-0.019 0.127,-0.0254 0.1778,-0.0445 -0.1016,0.1143 -0.09525,0.1016 -0.14605,0.18415 -0.254,0.3429 q -0.2413,0.3429 -0.3175,0.4699 -0.06985,0.127 -0.06985,0.2032 0,0.254 0.17145,0.22225 0.12065,-0.0381 0.29845,-0.1905 l 0.0762,-0.0762 0.0508,-0.0572 0.12065,-0.1143 0.10795,-0.12065 0.05715,-0.0571 0.1397,-0.18415 0.04445,-0.0635 h 0.03175 q 0.00635,0.0318 0,0.0445 z m -0.6797477,-2.00025 q -0.0254,0.2159 -0.1778,0.4572 -0.23495,0.37465 -0.5587999,0.6096 -0.3175,0.23495 -0.6096,0.23495 -0.04445,0.006 -0.05715,0.006 -0.20955,0 -0.3302,-0.10795 -0.12065,-0.10795 -0.12065,-0.27305 0,-0.0635 0.0127,-0.1016 0.0381,-0.1143 0.08255,-0.19685 0.0508,-0.0889 0.13335,-0.17145 0.127,-0.1397 0.3556,-0.2159 l 0.13335,-0.0445 q 0.1143,-0.0381 0.127,0 0.01905,0.0191 -0.0127,0.0445 l -0.09525,0.006 q -0.3175,0.0445 -0.46355,0.381 -0.0381,0.0889 -0.0381,0.17145 0,0.28575 0.34925,0.33655 0.0508,0.006 0.0762,0.006 0.22225,0 0.4445,-0.14605 0.2222499,-0.14605 0.3936999,-0.42545 0.0889,-0.13335 0.13335,-0.28575 0.04445,-0.15875 0.04445,-0.28575 0,-0.1905 -0.0381,-0.2794 -0.0381,-0.0889 -0.14605,-0.17145 -0.1524,-0.1143 -0.4254499,-0.1143 -0.36195,0 -0.75565,0.2032 -0.45085,0.23495 -0.84455,0.6858 -0.17145,0.19685 -0.3048,0.4191 -0.1016,0.1778 -0.18415,0.3429 -0.0762,0.15875 -0.12065,0.3048 -0.10795,0.3429 -0.10795,0.59055 0,0.4064 0.22225,0.62865 0.2286,0.2159 0.61595,0.2159 0.3048,0 0.55245,-0.0889 0.254,-0.0889 0.61595,-0.33655 0.2159,-0.1524 0.4190999,-0.38735 l 0.05715,-0.0825 0.0635,-0.0825 0.0889,-0.14605 q 0.0254,-0.0572 0.0508,-0.1143 0.0127,-0.0191 0.03175,-0.0254 l 0.04445,0.019 q 0.00635,0.0445 -0.0635,0.1524 l -0.0762,0.127 -0.01905,0.019 -0.0508,0.0762 -0.0635,0.0889 q -0.4000499,0.51435 -0.8953499,0.79375 -0.20955,0.1143 -0.41275,0.1905 -0.19685,0.0699 -0.34925,0.0889 -0.14605,0.0254 -0.26035,0.0254 -0.4318,0 -0.69215,-0.2159 -0.254,-0.22225 -0.31115,-0.61595 -0.00635,-0.0635 -0.0127,-0.10795 0,-0.0508 0,-0.0826 0,-0.43815 0.24765,-0.9271 0.254,-0.4953 0.76835,-0.98425 0.22225,-0.2159 0.4953,-0.40005 0.27305,-0.1905 0.508,-0.29845 0.2794,-0.127 0.5207,-0.19685 0.2413,-0.0699 0.3936999,-0.0699 0.04445,0 0.13335,0.0127 0.4953,0.1016 0.4953,0.59055 0,0.0381 -0.00635,0.0825 -0.00635,0.0444 -0.00635,0.0699 z" />
  </g>
</svg>
